<svg xmlns="http://www.w3.org/2000/svg" viewBox="0 0 200 200" width="200" height="200" role="img" aria-labelledby="t">
  <title id="t">The Throat Locket</title>
  <desc>A heart locket hanging at the throat, which is exactly where the thyroid sits. The illness and the mother are carried in the same place.</desc>
  <path d="M 30 32 C 48 54 72 62 100 62" fill="none" stroke="#5BBCC9" stroke-width="5" stroke-linecap="round"/>
  <path d="M 170 32 C 152 54 128 62 100 62" fill="none" stroke="#5BBCC9" stroke-width="5" stroke-linecap="round"/>
  <circle cx="100" cy="62" r="10" fill="none" stroke="#1F6670" stroke-width="5.5"/>
  <path d="M 100 76 C 107 62 126 60 137 71 C 148 82 147 101 140 118 C 132 139 117 155 100 166 C 83 155 68 139 60 118 C 53 101 52 82 63 71 C 74 60 93 62 100 76 Z" fill="#5BBCC9"/>
  <path d="M 100 76 L 100 166" fill="none" stroke="#F7F2E9" stroke-width="3" opacity="0.9"/>
  <path d="M 100 84 C 105 74 118 73 126 81 C 134 89 133 103 128 115 C 122 130 111 142 100 150 C 89 142 78 130 72 115 C 67 103 66 89 74 81 C 82 73 95 74 100 84 Z" fill="none" stroke="#C9A961" stroke-width="1.6"/>

</svg>
