<svg xmlns="http://www.w3.org/2000/svg" viewBox="0 0 200 200" width="200" height="200" role="img" aria-labelledby="t">
  <title id="t">The Kept Promise</title>
  <desc>A wax seal with thirteen scallops, a bloom pressed into it. A seal is the object of a promise that is meant to hold. Her mother was given one that did not.</desc>
  <path d="M 100.00 30.00 A 19.0 19.0 0 0 1 132.53 38.02 A 19.0 19.0 0 0 1 157.61 60.24 A 19.0 19.0 0 0 1 169.49 91.56 A 19.0 19.0 0 0 1 165.45 124.82 A 19.0 19.0 0 0 1 146.42 152.40 A 19.0 19.0 0 0 1 116.75 167.97 A 19.0 19.0 0 0 1 83.25 167.97 A 19.0 19.0 0 0 1 53.58 152.40 A 19.0 19.0 0 0 1 34.55 124.82 A 19.0 19.0 0 0 1 30.51 91.56 A 19.0 19.0 0 0 1 42.39 60.24 A 19.0 19.0 0 0 1 67.47 38.02 A 19.0 19.0 0 0 1 100.00 30.00 Z" fill="#5BBCC9"/>
  <circle cx="100" cy="100" r="60" fill="none" stroke="#C9A961" stroke-width="1.6" opacity="0.9"/>
  <g transform="rotate(-90 100 100)"><path d="M 100 100 C 84 96 74 80 78 64 C 82 48 96 42 100 44 C 104 42 118 48 122 64 C 126 80 116 96 100 100 Z" fill="#F7F2E9"/></g>
  <g transform="rotate(-18 100 100)"><path d="M 100 100 C 84 96 74 80 78 64 C 82 48 96 42 100 44 C 104 42 118 48 122 64 C 126 80 116 96 100 100 Z" fill="#F7F2E9"/></g>
  <g transform="rotate(54 100 100)"><path d="M 100 100 C 84 96 74 80 78 64 C 82 48 96 42 100 44 C 104 42 118 48 122 64 C 126 80 116 96 100 100 Z" fill="#F7F2E9"/></g>
  <g transform="rotate(126 100 100)"><path d="M 100 100 C 84 96 74 80 78 64 C 82 48 96 42 100 44 C 104 42 118 48 122 64 C 126 80 116 96 100 100 Z" fill="#F7F2E9"/></g>
  <g transform="rotate(198 100 100)"><path d="M 100 100 C 84 96 74 80 78 64 C 82 48 96 42 100 44 C 104 42 118 48 122 64 C 126 80 116 96 100 100 Z" fill="#F7F2E9"/></g>
  <circle cx="100" cy="100" r="13.5" fill="#F7F2E9"/>
  <circle cx="100" cy="100" r="13.5" fill="none" stroke="#5BBCC9" stroke-width="2.4"/>
  <circle cx="100" cy="100" r="6" fill="#5BBCC9"/>
</svg>
